<svg width="147" height="39" viewBox="0 0 147 39" fill="none" xmlns="http://www.w3.org/2000/svg">
<path d="M52.4492 38.3125V15.6367L52.7305 11.9805H55.7188V38.3125H52.4492ZM39.6699 21.7012V21.332C39.6699 19.8789 39.8398 18.5605 40.1797 17.377C40.5195 16.1816 41.0176 15.1562 41.6738 14.3008C42.3301 13.4453 43.1211 12.7891 44.0469 12.332C44.9844 11.8633 46.0508 11.6289 47.2461 11.6289C48.4414 11.6289 49.4902 11.8398 50.3926 12.2617C51.3066 12.6719 52.0801 13.2754 52.7129 14.0723C53.3574 14.8574 53.8672 15.8066 54.2422 16.9199C54.6172 18.0332 54.875 19.293 55.0156 20.6992V22.3164C54.8867 23.7109 54.6348 24.9648 54.2598 26.0781C53.8848 27.1914 53.375 28.1406 52.7305 28.9258C52.0977 29.7109 51.3184 30.3145 50.3926 30.7363C49.4785 31.1465 48.418 31.3516 47.2109 31.3516C46.0391 31.3516 44.9844 31.1113 44.0469 30.6309C43.1211 30.1504 42.3301 29.4766 41.6738 28.6094C41.0293 27.7422 40.5312 26.7227 40.1797 25.5508C39.8398 24.3672 39.6699 23.084 39.6699 21.7012ZM42.9395 21.332V21.7012C42.9395 22.6504 43.0391 23.5469 43.2383 24.3906C43.4375 25.2227 43.7422 25.9609 44.1523 26.6055C44.5742 27.25 45.1016 27.7598 45.7344 28.1348C46.3789 28.498 47.1406 28.6797 48.0195 28.6797C49.0977 28.6797 49.9941 28.4453 50.709 27.9766C51.4355 27.5078 52.0156 26.8926 52.4492 26.1309C52.8828 25.3574 53.2168 24.5312 53.4512 23.6523V19.416C53.3223 18.7715 53.1172 18.1445 52.8359 17.5352C52.5664 16.9258 52.2148 16.3809 51.7812 15.9004C51.3477 15.4082 50.8203 15.0215 50.1992 14.7402C49.5898 14.4473 48.875 14.3008 48.0547 14.3008C47.1641 14.3008 46.3965 14.4883 45.752 14.8633C45.1074 15.2383 44.5742 15.7539 44.1523 16.4102C43.7422 17.0547 43.4375 17.7988 43.2383 18.6426C43.0391 19.4863 42.9395 20.3828 42.9395 21.332Z" fill="black"/>
<path d="M64.1738 15.7598V31H60.9043V11.9805H63.998L64.1738 15.7598ZM63.5059 20.7695L61.9941 20.7168C62.0059 19.416 62.1758 18.2148 62.5039 17.1133C62.832 16 63.3184 15.0332 63.9629 14.2129C64.6074 13.3926 65.4102 12.7598 66.3711 12.3145C67.332 11.8574 68.4453 11.6289 69.7109 11.6289C70.6016 11.6289 71.4219 11.7578 72.1719 12.0156C72.9219 12.2617 73.5723 12.6543 74.123 13.1934C74.6738 13.7324 75.1016 14.4238 75.4062 15.2676C75.7109 16.1113 75.8633 17.1309 75.8633 18.3262V31H72.6113V18.4844C72.6113 17.4883 72.4414 16.6914 72.1016 16.0938C71.7734 15.4961 71.3047 15.0625 70.6953 14.793C70.0859 14.5117 69.3711 14.3711 68.5508 14.3711C67.5898 14.3711 66.7871 14.541 66.1426 14.8809C65.498 15.2207 64.9824 15.6895 64.5957 16.2871C64.209 16.8848 63.9277 17.5703 63.752 18.3438C63.5879 19.1055 63.5059 19.9141 63.5059 20.7695ZM75.8281 18.9766L73.6484 19.6445C73.6602 18.6016 73.8301 17.5996 74.1582 16.6387C74.498 15.6777 74.9844 14.8223 75.6172 14.0723C76.2617 13.3223 77.0527 12.7305 77.9902 12.2969C78.9277 11.8516 80 11.6289 81.207 11.6289C82.2266 11.6289 83.1289 11.7637 83.9141 12.0332C84.7109 12.3027 85.3789 12.7188 85.918 13.2812C86.4688 13.832 86.8848 14.541 87.166 15.4082C87.4473 16.2754 87.5879 17.3066 87.5879 18.502V31H84.3184V18.4668C84.3184 17.4004 84.1484 16.5742 83.8086 15.9883C83.4805 15.3906 83.0117 14.9746 82.4023 14.7402C81.8047 14.4941 81.0898 14.3711 80.2578 14.3711C79.543 14.3711 78.9102 14.4941 78.3594 14.7402C77.8086 14.9863 77.3457 15.3262 76.9707 15.7598C76.5957 16.1816 76.3086 16.668 76.1094 17.2188C75.9219 17.7695 75.8281 18.3555 75.8281 18.9766Z" fill="black"/>
<path d="M103.725 27.748V17.957C103.725 17.207 103.572 16.5566 103.268 16.0059C102.975 15.4434 102.529 15.0098 101.932 14.7051C101.334 14.4004 100.596 14.248 99.7168 14.248C98.8965 14.248 98.1758 14.3887 97.5547 14.6699C96.9453 14.9512 96.4648 15.3203 96.1133 15.7773C95.7734 16.2344 95.6035 16.7266 95.6035 17.2539H92.3516C92.3516 16.5742 92.5273 15.9004 92.8789 15.2324C93.2305 14.5645 93.7344 13.9609 94.3906 13.4219C95.0586 12.8711 95.8555 12.4375 96.7812 12.1211C97.7188 11.793 98.7617 11.6289 99.9102 11.6289C101.293 11.6289 102.512 11.8633 103.566 12.332C104.633 12.8008 105.465 13.5098 106.062 14.459C106.672 15.3965 106.977 16.5742 106.977 17.9922V26.8516C106.977 27.4844 107.029 28.1582 107.135 28.873C107.252 29.5879 107.422 30.2031 107.645 30.7188V31H104.252C104.088 30.625 103.959 30.127 103.865 29.5059C103.771 28.873 103.725 28.2871 103.725 27.748ZM104.287 19.4688L104.322 21.7539H101.035C100.109 21.7539 99.2832 21.8301 98.5566 21.9824C97.8301 22.123 97.2207 22.3398 96.7285 22.6328C96.2363 22.9258 95.8613 23.2949 95.6035 23.7402C95.3457 24.1738 95.2168 24.6836 95.2168 25.2695C95.2168 25.8672 95.3516 26.4121 95.6211 26.9043C95.8906 27.3965 96.2949 27.7891 96.834 28.082C97.3848 28.3633 98.0586 28.5039 98.8555 28.5039C99.8516 28.5039 100.73 28.293 101.492 27.8711C102.254 27.4492 102.857 26.9336 103.303 26.3242C103.76 25.7148 104.006 25.123 104.041 24.5488L105.43 26.1133C105.348 26.6055 105.125 27.1504 104.762 27.748C104.398 28.3457 103.912 28.9199 103.303 29.4707C102.705 30.0098 101.99 30.4609 101.158 30.8242C100.338 31.1758 99.4121 31.3516 98.3809 31.3516C97.0918 31.3516 95.9609 31.0996 94.9883 30.5957C94.0273 30.0918 93.2773 29.418 92.7383 28.5742C92.2109 27.7188 91.9473 26.7637 91.9473 25.709C91.9473 24.6895 92.1465 23.793 92.5449 23.0195C92.9434 22.2344 93.5176 21.584 94.2676 21.0684C95.0176 20.541 95.9199 20.1426 96.9746 19.873C98.0293 19.6035 99.207 19.4688 100.508 19.4688H104.287Z" fill="black"/>
<path d="M115.344 14.9688V31H112.092V11.9805H115.256L115.344 14.9688ZM121.285 11.875L121.268 14.8984C120.998 14.8398 120.74 14.8047 120.494 14.793C120.26 14.7695 119.99 14.7578 119.686 14.7578C118.936 14.7578 118.273 14.875 117.699 15.1094C117.125 15.3438 116.639 15.6719 116.24 16.0938C115.842 16.5156 115.525 17.0195 115.291 17.6055C115.068 18.1797 114.922 18.8125 114.852 19.5039L113.938 20.0312C113.938 18.8828 114.049 17.8047 114.271 16.7969C114.506 15.7891 114.863 14.8984 115.344 14.125C115.824 13.3398 116.434 12.7305 117.172 12.2969C117.922 11.8516 118.812 11.6289 119.844 11.6289C120.078 11.6289 120.348 11.6582 120.652 11.7168C120.957 11.7637 121.168 11.8164 121.285 11.875Z" fill="black"/>
<path d="M134.803 27.748V17.957C134.803 17.207 134.65 16.5566 134.346 16.0059C134.053 15.4434 133.607 15.0098 133.01 14.7051C132.412 14.4004 131.674 14.248 130.795 14.248C129.975 14.248 129.254 14.3887 128.633 14.6699C128.023 14.9512 127.543 15.3203 127.191 15.7773C126.852 16.2344 126.682 16.7266 126.682 17.2539H123.43C123.43 16.5742 123.605 15.9004 123.957 15.2324C124.309 14.5645 124.812 13.9609 125.469 13.4219C126.137 12.8711 126.934 12.4375 127.859 12.1211C128.797 11.793 129.84 11.6289 130.988 11.6289C132.371 11.6289 133.59 11.8633 134.645 12.332C135.711 12.8008 136.543 13.5098 137.141 14.459C137.75 15.3965 138.055 16.5742 138.055 17.9922V26.8516C138.055 27.4844 138.107 28.1582 138.213 28.873C138.33 29.5879 138.5 30.2031 138.723 30.7188V31H135.33C135.166 30.625 135.037 30.127 134.943 29.5059C134.85 28.873 134.803 28.2871 134.803 27.748ZM135.365 19.4688L135.4 21.7539H132.113C131.188 21.7539 130.361 21.8301 129.635 21.9824C128.908 22.123 128.299 22.3398 127.807 22.6328C127.314 22.9258 126.939 23.2949 126.682 23.7402C126.424 24.1738 126.295 24.6836 126.295 25.2695C126.295 25.8672 126.43 26.4121 126.699 26.9043C126.969 27.3965 127.373 27.7891 127.912 28.082C128.463 28.3633 129.137 28.5039 129.934 28.5039C130.93 28.5039 131.809 28.293 132.57 27.8711C133.332 27.4492 133.936 26.9336 134.381 26.3242C134.838 25.7148 135.084 25.123 135.119 24.5488L136.508 26.1133C136.426 26.6055 136.203 27.1504 135.84 27.748C135.477 28.3457 134.99 28.9199 134.381 29.4707C133.783 30.0098 133.068 30.4609 132.236 30.8242C131.416 31.1758 130.49 31.3516 129.459 31.3516C128.17 31.3516 127.039 31.0996 126.066 30.5957C125.105 30.0918 124.355 29.418 123.816 28.5742C123.289 27.7188 123.025 26.7637 123.025 25.709C123.025 24.6895 123.225 23.793 123.623 23.0195C124.021 22.2344 124.596 21.584 125.346 21.0684C126.096 20.541 126.998 20.1426 128.053 19.873C129.107 19.6035 130.285 19.4688 131.586 19.4688H135.365Z" fill="black"/>
<path d="M146.703 4V31H143.434V4H146.703Z" fill="black"/>
<path d="M40 30.815C30.0444 14.2224 9.18519 16.0002 0 18.9631C20.6222 16.1188 31.9012 25.6792 34.963 30.815H40Z" fill="#DE3B38"/>
<path d="M16 13.3334C10.7852 13.0964 6.12346 15.605 4.44444 16.8889C9.8963 13.5705 16.9877 14.321 19.8519 15.1111L23.1111 8.59259C24.5926 11.358 27.4963 16.8889 27.2593 16.8889C30.1037 16.8889 33.7778 20.0494 35.2593 21.6296L23.1111 0L16 13.3334Z" fill="#DE3B38"/>
<path d="M5.92622 30.8144L13.0373 18.9625C14.2225 18.4885 16.6916 19.1601 17.7781 19.5551L15.1114 24.8885C12.741 29.6292 8.00029 30.8144 5.92622 30.8144Z" fill="#DE3B38"/>
</svg>
