<svg width="40" height="39" viewBox="0 0 147 39" fill="none" xmlns="http://www.w3.org/2000/svg">
<path d="M40 30.815C30.0444 14.2224 9.18519 16.0002 0 18.9631C20.6222 16.1188 31.9012 25.6792 34.963 30.815H40Z" fill="#DE3B38"/>
<path d="M16 13.3334C10.7852 13.0964 6.12346 15.605 4.44444 16.8889C9.8963 13.5705 16.9877 14.321 19.8519 15.1111L23.1111 8.59259C24.5926 11.358 27.4963 16.8889 27.2593 16.8889C30.1037 16.8889 33.7778 20.0494 35.2593 21.6296L23.1111 0L16 13.3334Z" fill="#DE3B38"/>
<path d="M5.92622 30.8144L13.0373 18.9625C14.2225 18.4885 16.6916 19.1601 17.7781 19.5551L15.1114 24.8885C12.741 29.6292 8.00029 30.8144 5.92622 30.8144Z" fill="#DE3B38"/>
</svg>
