<svg width="314" height="242" viewBox="0 0 314 242" fill="none" xmlns="http://www.w3.org/2000/svg">
<path d="M314 242C235.849 111.693 72.1037 125.654 0 148.924C161.884 126.586 250.425 201.667 274.459 242H314Z" fill="#DE3B38"/>
<path d="M125.6 104.711C84.6637 102.85 48.0691 122.551 34.8889 132.634C77.6859 106.573 133.353 112.468 155.837 118.672L181.422 67.4804C193.052 89.1984 215.846 132.634 213.985 132.634C236.314 132.634 265.156 157.454 276.785 169.864L181.422 0L125.6 104.711Z" fill="#DE3B38"/>
<path d="M46.5208 241.995L102.343 148.919C111.647 145.196 131.029 150.47 139.558 153.573L118.625 195.457C100.017 232.688 62.8023 241.995 46.5208 241.995Z" fill="#DE3B38"/>
</svg>
